<svg xmlns="http://www.w3.org/2000/svg"  viewBox="0 0 50 50" width="25px" height="25px"><path d="M 21.5 8 C 20.848122 8 20.298487 8.4187503 20.091797 9 L 10.5 9 C 10.224 9 10 9.224 10 9.5 C 10 9.776 10.224 10 10.5 10 L 39.5 10 C 39.776 10 40 9.776 40 9.5 C 40 9.224 39.776 9 39.5 9 L 29.908203 9 C 29.701513 8.4187503 29.151878 8 28.5 8 L 21.5 8 z M 12 11 L 12 37.238281 C 12 39.311281 13.688719 41 15.761719 41 L 34.238281 41 C 36.311281 41 38 39.311281 38 37.238281 L 38 11 L 12 11 z M 16.5 15 C 16.707 15 16.875 15.168 16.875 15.375 L 16.875 34.625 C 16.875 34.832 16.707 35 16.5 35 C 16.293 35 16.125 34.832 16.125 34.625 L 16.125 15.375 C 16.125 15.168 16.293 15 16.5 15 z M 25 15 C 25.276 15 25.5 15.224 25.5 15.5 L 25.5 34.5 C 25.5 34.776 25.276 35 25 35 C 24.724 35 24.5 34.776 24.5 34.5 L 24.5 15.5 C 24.5 15.224 24.724 15 25 15 z M 33.5 15 C 33.707 15 33.875 15.168 33.875 15.375 L 33.875 34.625 C 33.875 34.832 33.707 35 33.5 35 C 33.293 35 33.125 34.832 33.125 34.625 L 33.125 15.375 C 33.125 15.168 33.293 15 33.5 15 z"/></svg>